<?xml version="1.0" encoding="utf-8"?>
<!-- Generator: Adobe Illustrator 21.1.0, SVG Export Plug-In . SVG Version: 6.00 Build 0)  -->
<svg version="1.0" id="Warstwa_1" xmlns="http://www.w3.org/2000/svg" xmlns:xlink="http://www.w3.org/1999/xlink" x="0px" y="0px"
	 viewBox="0 0 792 792" enable-background="new 0 0 792 792" xml:space="preserve">
<g>
	<path d="M670.9,414.5c16.9-12.6,24.4-22.9,24.4-22.9l-2.7-2.2c-8.3-6.7-32.4-31.6-41.4-41.5c11.8-13.1,13.8-28,13.5-38.4
		c-0.3-10.3-3.1-19.5-5.9-23.6c2.6-7.4,7.7-31.8-7.6-45.2c49-96,35.7-179.5,34-188.7v0c-1-10.3-10.5-14.8-18.3-15.5
		C604,30.7,549.7,70.3,532.2,84.7c-11.7-8.6-67.8-41.7-135.5-42.1C329,43.1,273,76.1,261.2,84.7c-17.5-14.5-71.9-54.2-134.6-48.1
		c-7.8,0.7-17.2,5.1-18.3,15.3c-1.7,9.2-14.8,92.7,33.9,189c-15.3,13.3-10.3,37.7-7.7,45.2c-2.8,4.1-5.6,13.6-5.9,23.6
		c-0.3,10.5,1.9,25.4,13.5,38.3c-9,9.9-20.8,23.6-45.4,42.2c7.2,10.3,12.1,15.1,28.2,25.5c-5.2-1-15.7-4.8-18.6-6.2l-4.5-2.1l0.1,5
		c0.1,3.7,4.8,32.5,20.6,56.3l-6.5-4.3l2.9,8.7c15,44.5,68.6,71.6,110.8,86.5c11.3,4.1,20.3,7,35,10.8c-2.3,6-5.9,17.7-9,28.7
		c-2,7.2-0.5,15.7,10.2,20.7c-9.2-1.1-19.7-1.7-31.5-1.7c-35.4,0-50.2,7.6-57.9,16.5c-1.9,2.1-3.4,4.3-4.6,6.5
		c-15.3,27.2-15.5,49.1-12.5,62.4c0.9,4.1,5.3,15.1,5.6,15.8c1.2,2.3,2.5,4.4,3.9,6.1c1.9,2.5,3.9,4.3,5.8,5.3
		c8.5,4.3,31.3,7.3,38.1,4c7,5.6,22.5,6.1,26,5.9c8.6-0.5,18.9-1,24.9-6.5c4.6,2.9,11.7,2.8,13,2.8c8.2-0.5,20.1-2.6,25.3-7.5
		c8.4-7.9,13-20.3,15-33.2c3.2,0,22.9,0,29.2,0c3.7,11.4,7.7,38.1,36,54.2c5.2,2.9,10.9,5.2,17.3,5.9c2.5,0.3,9.3-2.5,17.2-9.4
		c9.5-8.3,20.4-22.4,26.8-44.2c0.5-1.5,1.7-6.5,1.7-6.5c6.4-0.1,19.6,0,23.5,0c0.4,5.6,2.3,13.7,3,15.9c3.2,10.2,8.8,19.1,13.9,21.8
		c8,4.4,19,5.6,27.3,5.5c5.5,0,9.7-0.6,10.8-1.2c0,0,0.1,0,0.1-0.1c7.1,5.2,21.2,5.6,25.6,5.6c0,0,0.1,0,0.1,0
		c8.1,0,18.8-1.1,24.9-6.2c0,0,0,0,0.1-0.1c2.5,1.8,6.1,2.7,11.1,2.7c0,0,0,0,0.1,0c8.3,0,21.1-3.1,26.8-8
		c6.4-5.6,8.5-9.6,13.1-25.2c5.7-19.4,2.8-43.2-3.7-61.3c-5.8-16.1-31.6-24.3-76.7-24.3c-1.9,0-3.7,0-5.4,0.1c-1.1,0-2.1,0-2.9,0
		c13.2-7.2-0.8-40.3-5.1-51.2c8.8-2.5,24-7.6,32.1-10.5c42.3-14.9,95.8-42,110.8-86.5c0.8-2.3,3.1-9,3.1-9l-5.8,4.1
		c14.3-22.2,20-49.6,20.2-55.6l0.1-5l-4.5,2.1C684.4,410.9,676.2,413.5,670.9,414.5z"/>
	<path fill="#FFFFFF" d="M404.3,703.8l-1.2-2.2l2.3,1c1.1,0.4,2.2,0.9,3.4,1.2c0.2,0,0.4,0.1,0.5,0.1c-2-1.6-3.8-3.3-5.2-5.2
		c-2-2.5-3.4-5.3-4.1-8.3l-0.5-2.3l2,1.3c0.6,0.4,1.2,0.8,1.8,1.1c-1.7-2-3.2-4-4.5-6.2c-1.4-2.4-2.6-5-3.5-7.8
		c-0.9,2.8-2.1,5.4-3.3,7.8c-1.3,2.1-2.8,4.2-4.5,6.2c0.6-0.4,1.3-0.7,1.8-1.1l2-1.3l-0.5,2.3c-0.7,3-2.1,5.8-4.1,8.3
		c-1.5,1.9-3.2,3.6-5.2,5.2c0.2,0,0.4-0.1,0.5-0.1c1.2-0.3,2.3-0.7,3.4-1.2l2.3-1l-1.2,2.2c-1.1,2.1-2.4,3.9-3.9,5.6
		c-1.3,1.3-2.6,2.3-4.1,3.1c2.2,3.6,4.7,6.5,7.5,9c2.9,2.5,6,4.4,9.4,5.6c3.4-1.3,6.5-3.1,9.4-5.6c2.7-2.4,5.2-5.5,7.5-9
		c-1.5-0.8-2.9-1.9-4.1-3.1C406.7,707.8,405.3,705.9,404.3,703.8z M399.6,705.6c0.6,0.4,1.2,0.9,1.7,1.3c0-0.4,0.1-0.6,0.1-0.9
		c0.1-0.8,0.3-1.6,0.6-2.6c0.1-0.3,0.4-0.4,0.7-0.4c0.3,0.1,0.4,0.4,0.4,0.7c-0.4,0.9-0.5,1.6-0.6,2.3c-0.1,0.7-0.1,1.3-0.1,1.9
		l0.1,1.3l-1-0.9c-0.8-0.7-1.6-1.4-2.5-2.1c-0.9-0.6-1.8-1.3-2.8-1.7c-0.3-0.1-0.4-0.4-0.3-0.7c0.1-0.3,0.4-0.4,0.7-0.3
		C397.6,704.2,398.6,704.8,399.6,705.6z M392,689.5c0.3-0.3,0.6-0.2,0.8,0l2.5,2.8l2.5-2.8c0.2-0.2,0.5-0.2,0.8,0
		c0.2,0.3,0.2,0.6,0,0.8l-3.3,3.6l-3.3-3.6C391.7,690.1,391.8,689.7,392,689.5z M387.9,703c0.3-0.1,0.6,0.1,0.7,0.4
		c0.4,1,0.5,1.8,0.6,2.6c0.1,0.4,0.1,0.6,0.1,0.9c0.5-0.4,1.1-0.9,1.7-1.3c1-0.6,2-1.3,3-1.8c0.3-0.1,0.5,0,0.7,0.3
		c0.1,0.3,0,0.5-0.3,0.7c-1,0.4-1.9,1.1-2.8,1.7c-0.9,0.6-1.7,1.3-2.5,2.1l-1,0.9l0.1-1.3c0-0.6,0-1.2-0.1-1.9
		c-0.1-0.6-0.3-1.4-0.6-2.3C387.4,703.5,387.6,703.2,387.9,703z M404.1,712.3c-1.2,2.1-2.5,3.9-3.9,5.3c-1.5,1.6-3.1,2.8-4.7,3.7
		l-0.3,0.2l-0.3-0.2c-1.5-0.8-3.2-2.1-4.7-3.7c-1.3-1.4-2.7-3.2-3.9-5.3c-0.2-0.3-0.1-0.5,0.2-0.7c0.3-0.2,0.5-0.1,0.7,0.2
		c1.1,2,2.3,3.7,3.7,5c1.4,1.5,2.9,2.6,4.3,3.4c1.4-0.8,2.9-2,4.3-3.4c1.3-1.3,2.6-3,3.7-5c0.2-0.3,0.5-0.4,0.7-0.2
		C404.2,711.6,404.3,712,404.1,712.3z M486.5,345.1c0-0.1,0-0.2,0-0.3c0.2-4.2,3.6-7.6,7.9-7.6c1.2,0,2.4,0.3,3.5,0.9
		c0.8,0.4,1.6,1,2.2,1.7c1.4,1.5,2.1,3.4,2.1,5.4c0,4.4-3.5,7.9-7.9,7.9c-3.4,0-6.5-2.2-7.5-5.6
		C486.7,346.6,486.5,345.9,486.5,345.1z M314.5,400.6c10.5-8.4,16.7-21.1,16.7-34.6c0-24.4-19.7-44.1-44.1-44.1
		c-24.4,0-44.1,19.7-44.1,44.1c0,13.4,6.2,26,16.5,34.4c-7.6-1.9-14.7-4.5-21.6-7.9c-9.7-4.9-15.2-23.4-12.8-39.3
		c7.6-51.2,37.5-58,53.4-58c23,0,44.8,6,55.1,41.7c1.6,5.6,4.8,23.6-1.9,46.5C329.4,390.2,325,399.5,314.5,400.6z M568.1,353.1
		c2.5,23.4-2.6,34.6-12.4,39.5c-6.9,3.4-14,6-21.6,7.9c10.2-8.4,16.5-21,16.5-34.4c0-24.4-19.7-44.1-44.1-44.1s-44.1,19.7-44.1,44.1
		c0,13.5,6.2,26.2,16.7,34.6c-9.8-0.5-14.9-10.5-17.2-17.4c-6.9-21.9-3.5-40.8-1.9-46.5c10.2-35.7,37.2-40.7,52.6-41.6
		c0.7,0,1.6-0.1,2.5-0.1C531,295.3,562.7,303.3,568.1,353.1z M267.2,347.8c-0.3-0.8-0.4-1.6-0.5-2.2c0-0.1,0-0.3,0-0.4
		c0-4.4,3.5-7.9,7.9-7.9c1.3,0,2.6,0.3,3.8,0.9c0.8,0.4,1.5,1,2.1,1.7c1.4,1.5,2.1,3.4,2.1,5.4c0,4.4-3.5,7.9-7.9,7.9
		C271.3,353.1,268.3,351,267.2,347.8z"/>
	<path fill="#DDDDDD" d="M305.6,644.5c8.3,23.2,10.3,61.3-8.1,80.4c-5.2,5.4-31.7,9.2-29,1.6c6.1-16.2,11.2-74.8-5.8-96.8
		c6.1,18,8.5,73.9-1.1,97.1c-4.5,11.2-43.7,8.6-46.8,1.4c-9.2-21.8-1.8-69.4,9.2-100.2c-24.5,35.6-19.2,85.1-16.4,95
		c2,7,3.1,7.6-2.7,7.2c-8.6-0.5-19.6-1.1-27.3-5c-6.3-3.1-26.6-35.1-0.4-81.7c5.6-9.7,16.4-19.8,57-19.8
		C292.9,623.8,303.3,638,305.6,644.5z M578.5,527c-16.7,15.5-50.8,33.7-50.8,33.7c-19.5,6-47.2,12.9-70.5,14.4
		c8.9-6,30.9-24.7,29.4-24.5c-6.2,1-40.8,25.2-45.7,28.1c-22.1,12.1-34.9,12-44.2,12.1c-9.5-0.1-21.5,1.1-44.2-12.1
		c-4.9-2.7-39.3-27-45.7-28.1c-1.5-0.2,20.5,18.5,29.4,24.5c-22.6-1.5-49.3-8-68.8-13.9c0,0-15-9.5-20-12.6
		c-59.1-35.4-91.3-92.3-101-112.7c15.4-3.7,29.8-20.9,29.8-20.9s-24.1-8.8-32.7-25c31.7-3.4,40.4-23.4,40.4-23.4s-12.1,1-15.3,0.7
		c21.7-16.4,17.6-56.7,17.6-56.7c5.5-8,5.5-17.2,6-19.2c1.2-5,4.1-16.5,18.9-18.9c4.5-0.7,12.7-0.7,18.2-14.2
		c11.2-27.7,23.9-34.2,49.3-27.9c1.6,0.4,20.9,5.6,32.5-4.9c6.4-5.7,9.9-11.9,19.6-10.4c10.5,1.6,22.6,7,35.3-3.2
		c13.7-10.9,20-10.6,30.5-2.9c10.5-7.7,16.7-8,30.5,2.9c12.9,10.2,25,4.7,35.4,3.2c9.7-1.5,13.2,4.5,19.6,10.4
		c11.6,10.6,30.9,5.4,32.5,4.9c25.5-6.4,38.1,0,49.3,27.9c5.4,13.5,13.7,13.5,18.2,14.2c14.6,2.4,17.6,13.9,18.9,18.9
		c0.5,2,1.1,12,6.5,19.9l-0.1,4.2c-0.6,31.6,10.4,46.1,18.6,52.5c-3.2,0.2-13.7,0.2-16.4-0.3c1.1,15.3,31.1,20,41.9,22
		c-4,7.4-21.4,20.3-34.1,26.4c3.8,8,20.4,17.9,29.4,21C640.3,451.4,616.7,491.5,578.5,527z M509.6,250.7c24.6-5.5,38.8,8.9,43.1,12
		c4.2,3.1,6.4-4.5,3.7-8.1c-18.4-26-44.5-19.5-50.2-12.7C503.1,245.5,505.4,251.7,509.6,250.7z M241,262.7
		c4.2-3.1,18.5-17.5,43.1-12c4.2,1,6.5-5.2,3.4-8.9c-5.7-6.7-31.9-13.2-50.2,12.7C234.6,258.2,236.8,265.8,241,262.7z M287.2,407.2
		c16.7,0,28.7-3.2,29.7-3.5c11.9-2.9,15.7-12,18.2-19.2c16.1-58.1-9.3-82.9-13.3-86.8c-11.2-10.7-24.3-14.4-40.7-14.4
		c-31,0-46.3,22.4-47.8,24.2c-5.9,7.6-12.2,10.1-17.6,10.1c-6.1,0-10.9-3.2-11.9-6.2c-1,13,8.9,14.7,14.9,14.7c2.2,0,4-0.2,4.4-0.2
		c-2.6,3-6.4,4.1-9.7,4.1c-3.5,0-6.7-1.1-8.1-2.5c-0.4,1.7,2.1,9.4,11.4,9.4c1.6,0,3.4-0.2,5.2-0.7c0,0,0,0,0.1,0
		c0.7,0-2.5,4.1-7.4,4.1c-1,0-2.1-0.2-3.4-0.7c0,1.4,1.9,6.2,9.4,6.5c-0.2,7.1-4,38.6,16,49.6C254.2,405.3,272.6,407.2,287.2,407.2z
		 M492.7,495.3c0-3.7-3.9-5.8-7.6-5.9h-0.3c-6.1,0-11.5,6.5-13.5,9l-0.1,0.1c-0.1,0.1-0.2,0.2-0.3,0.3l-0.9,0.9
		c-1.4,1.6-2.7,3.1-4,4.5l-1,1.2c-4.8,5.4-9,10.1-13.3,13.8c-8.3,7-15.7,11.5-22.1,13.5c-12.8,3.9-22.4,4.3-30.5,4.3l1-51.4
		c15.3-1.1,24.1-6.7,31.2-12.5c8.9-7.2,19.7-19.2,20.4-35.9l0-0.3c0.3-4.5-0.4-13.4-7.9-21.4c-8.9-9.7-24.7-14.8-47.1-15.3
		c-22.3,0.5-38.2,5.7-47.1,15.3c-7.8,8.4-8.1,17.7-7.9,21.3l0,0.4c0.6,16.4,11.4,28.6,20.4,35.8c7.2,5.8,15.9,11.3,31.2,12.5l1,51.4
		c-8,0-17.7-0.4-30.5-4.3c-6.3-1.9-13.7-6.5-22.1-13.5c-4.8-4.1-9.4-9.3-14.3-14.9c-0.7-0.8-1.4-1.6-2.2-2.5
		c-0.8-0.9-1.6-1.9-2.5-2.8l-0.4-0.4c-4.6-6-9.4-9.1-13.6-9.1l-0.3,0c-3.8,0.1-7.6,2.4-7.6,5.9c0,0.7,0.2,2.1,1.5,3.4
		c1.7,1.5,4.7,2.1,8.6,1.5c1.6-0.2,5.5,0,6.8,1.5l3.1,3.8c5.6,6.8,6.7,8.2,12.1,14.1c8.4,9.2,18.1,15.8,28.9,19.4
		c11.9,4.1,23.8,5.1,32.4,5.1c0.7,0,1.4,0,2.1,0h3.4c7.9,0,19.8-0.9,31.8-5c10.7-3.6,20.4-10.2,28.9-19.4c5.4-6.1,6.4-7.1,12.6-14.8
		l2.5-3.1c1.3-1.5,5.2-1.7,6.8-1.5c4.1,0.5,7,0,8.6-1.5C492.5,497.6,492.7,496.2,492.7,495.3z M311.8,468.6c0,2,1.6,3.6,3.6,3.6
		s3.6-1.6,3.6-3.6c0-2-1.6-3.6-3.6-3.6S311.8,466.6,311.8,468.6z M318.5,450.2c2,0,3.6-1.6,3.6-3.6s-1.6-3.6-3.6-3.6
		c-2,0-3.6,1.6-3.6,3.6S316.5,450.2,318.5,450.2z M335,463.2c2,0,3.6-1.6,3.6-3.6s-1.6-3.6-3.6-3.6c-2,0-3.6,1.6-3.6,3.6
		C331.4,461.6,333,463.2,335,463.2z M458.7,463.2c2,0,3.6-1.6,3.6-3.6s-1.6-3.6-3.6-3.6s-3.6,1.6-3.6,3.6S456.7,463.2,458.7,463.2z
		 M478.8,446.6c0-2-1.6-3.6-3.6-3.6s-3.6,1.6-3.6,3.6s1.6,3.6,3.6,3.6S478.8,448.6,478.8,446.6z M478.3,464.9c-2,0-3.6,1.6-3.6,3.6
		c0,2,1.6,3.6,3.6,3.6c2,0,3.6-1.6,3.6-3.6C481.9,466.6,480.3,464.9,478.3,464.9z M493.2,437.5c-26.4-44.1-69.1-50.7-96.3-50.7
		c-27.2,0-69.8,6.6-96.3,50.7l1,0.7c32-40.9,68.8-44.9,95.2-45c26.4,0,62,4,95.3,45L493.2,437.5z M573.3,346.1
		c7.5-0.1,9.4-5.1,9.4-6.5c-1.1,0.5-2.2,0.7-3.4,0.7c-4.7,0-8-4.1-7.4-4.1c0,0,0,0,0.1,0c2,0.5,3.7,0.7,5.2,0.7
		c9.1,0,11.7-7.7,11.4-9.4c-1.4,1.4-4.6,2.5-8.1,2.5c-3.4,0-7.1-1.1-9.7-4.1c0.4,0,2.1,0.2,4.4,0.2c6,0,15.9-1.7,14.9-14.7
		c-1.1,2.9-5.9,6.2-11.9,6.2c-5.4,0-11.7-2.5-17.6-10.1c-1.5-1.9-16.7-24.2-47.8-24.2h-0.1c-16.6,0-27.5,3.1-40,14.7
		c-4.1,3.7-30.7,31-13.9,86.4c2.5,7.2,6.4,16.2,18.2,19.2c1.1,0.2,13,3.5,29.7,3.5c14.5,0,32.6-2.8,50.8-11.5
		C576.6,386.7,574.2,355.3,573.3,346.1z M406.6,616.5c-2.5,0-7.2,0-9.9,0c-2.6,0-7.4,0-9.9,0c-3.4,0-4.2,0.7-4.5,4.6
		c-0.5,7.2-1,14.4-0.9,21.6c0,4.1,0.7,8.6,5.1,10c2.5,0.7,17.7,0.7,20.2,0c4.2-1.4,5.1-5.9,5.1-10c0.1-7.2-0.4-14.5-0.9-21.6
		C410.9,617.2,410,616.5,406.6,616.5z M155.8,221.6c-0.1-2.9,1.4-13.5,11.4-16.5c-32.5-59-32.2-131.9-31.4-139.4
		c-1.4-1.4-9.3-4.9-7-4.4c12.7-0.2,70.1,24.5,99.6,89.2c0.5,1.1,0,1.6-1.2,0.7c-8.7-5.9-23.5-13.5-26.2-13.1
		c4.9,5.4,7.1,19.1,7.2,20.5c-13.1-10.5-23.5-13.5-28.5-14.7c9,12.4,12.6,25.4,13,27.1c0.1,0.4,1,1.7,2.4-0.6
		c5.2-8.4,16-9.5,18.1-9.4c14,1,15.6-2.2,18-7.4c0.7-1.6,2.2-7,5.6-11.9c2.4-3.4,5-5.4,12.4-5.9c7.5-8.9,15.1-27.1,17.5-33.1
		c-13.7-11.5-38.5-37.1-84.9-51.5c-13.7-4.2-51.1-13.9-63.1-5.2c-8.2,5.9-6,41.1-5.1,60c1.7,35.4,19.4,99.3,37.8,132.3
		C157.5,236.3,155.9,224.4,155.8,221.6z M488,646.3c-26.3,46.6-5.9,78.6,0.4,81.8c7.7,4,18.7,4.5,27.3,5c5.8,0.4,4.1-0.4,2.5-7.4
		c-1.8-7.6-8.6-60.3,16.5-94.8c-11,30.8-18.3,78.4-9.2,100.2c3.1,7.2,42.3,9.7,46.8-1.4c9.5-23.2,7.2-79.1,1.1-97.1
		c18,18.7,11.2,80.4,5,96.6c-2.7,7.6,24.5,4,29.7-1.4c18.3-19.1,16.4-57.2,8.1-80.4c-2.3-6.5-12.8-20.7-71.2-20.7
		C504.6,626.7,493.6,636.6,488,646.3z M544.7,136c7.4,0.5,10.1,2.5,12.4,5.9c3.4,4.9,4.9,10.2,5.6,11.9c2.4,5.1,4,8.4,18,7.4
		c2-0.1,12.9,1,18.1,9.4c1.5,2.2,2.2,1,2.4,0.6c0.5-1.7,4-14.7,13-27.1c-5,1.2-15.4,4.2-28.5,14.7c0.2-1.4,2.4-15.1,7.2-20.5
		c-2.7-0.4-17.5,7.4-26.2,13.1c-1.2,0.9-1.7,0.4-1.2-0.7C594.8,86,657,62.6,662.7,62c2.4-0.5,1.2,0.9,0,1.4
		c-1.6,0.6-3.2,0.9-4.6,2.2c1.5,10.1,1.4,80.8-31.1,139.8c10,3,11.2,13.5,11.1,16.4c-0.1,2.7-1.7,14.7,4.6,17
		c18.5-33.1,36.1-96.9,37.8-132.3c0.9-18.9,3.1-54.1-5.1-60c-12-8.6-49.2,1-63.1,5.2c-46.5,14.4-71.3,39.8-84.9,51.5
		C529.6,109.1,537.4,127.2,544.7,136z M522.9,568.4c-33.9,8.6-63.3,12.5-75.3,13h-0.2l-0.1,0.1c-13.7,10.2-29.9,15.5-49.6,15.5
		c-19.7,0-37.6-5.2-51.3-15.5l-0.1-0.1h-0.2c-8.4-0.4-25.1-2.4-45.8-6.4c25,13,64.9,29.4,85.6,32.1c2.7,0.3,22.5,2.1,35.2-0.4
		C460.4,599.1,507.6,576.7,522.9,568.4z M441.1,686.4c-2,34.7-29,61.2-41.9,65.3c-2,0.5-41.9-12.8-48.2-62.1
		c12.2-4.5,19.3-14.9,20.2-31.4c6.5-0.9,38.2-1.1,48.9,0.5c0.2,4,0.5,6.1,1.1,8.1c0.4,1.8,1.4,5,2.3,6.8
		C426.2,679.2,429.9,684.4,441.1,686.4z M433.5,689.3c-12.8-0.9-16.4-17.8-16.9-20.5c-0.4-1.3,0-1.8-1.4-2
		c-7.9-0.4-26.1-0.4-40.3,0.5c-1.3,0-0.9,1.3-0.9,2.3c-0.4,4.9-3.2,14.6-16.2,21.9c0.2,1.2,0.5,2.4,0.8,3.6c0.3,1.2,0.6,2.3,0.9,3.4
		c0,0,0,0,0,0l0,0c0.2,0.8,0.5,1.5,0.7,2.3c0.1,0.3,0.2,0.6,0.3,0.9c0.2,0.7,0.5,1.4,0.7,2c0.1,0.4,0.2,0.7,0.4,1.1
		c0.2,0.6,0.5,1.3,0.7,1.9c0.1,0.4,0.3,0.7,0.4,1.1c0.2,0.6,0.5,1.2,0.7,1.8c0.2,0.4,0.3,0.7,0.5,1c0.3,0.6,0.5,1.1,0.8,1.6
		c0.2,0.3,0.3,0.7,0.5,1c0.3,0.5,0.5,1,0.8,1.6c0.2,0.3,0.3,0.6,0.5,1c0.3,0.5,0.6,1,0.8,1.5c0.2,0.3,0.4,0.6,0.5,0.9
		c0.3,0.5,0.6,0.9,0.9,1.4c0.2,0.3,0.4,0.6,0.5,0.8c0.3,0.5,0.6,0.9,0.9,1.3c0.2,0.3,0.4,0.5,0.5,0.8c0.3,0.4,0.6,0.9,0.9,1.3
		c0.2,0.2,0.4,0.5,0.5,0.7c0.3,0.4,0.6,0.8,1,1.2c0.2,0.2,0.4,0.4,0.5,0.6c0.3,0.4,0.7,0.8,1,1.2c0.2,0.2,0.3,0.4,0.5,0.5
		c0.3,0.4,0.7,0.8,1,1.2c0.1,0.1,0.3,0.3,0.4,0.4c0.4,0.4,0.8,0.8,1.2,1.2c0,0,0,0,0,0c1.4,1.4,2.9,2.7,4.3,3.9c0,0,0.1,0.1,0.1,0.1
		c0.4,0.3,0.7,0.6,1.1,0.9c0.1,0.1,0.3,0.2,0.4,0.3c0.3,0.2,0.6,0.5,1,0.7c0.2,0.1,0.3,0.2,0.5,0.4c0.3,0.2,0.6,0.4,0.9,0.6
		c0.2,0.1,0.4,0.2,0.5,0.4c0.3,0.2,0.6,0.4,0.8,0.5c0.2,0.1,0.4,0.2,0.6,0.4c0.3,0.2,0.5,0.3,0.8,0.5c0.2,0.1,0.4,0.2,0.6,0.3
		c0.2,0.1,0.5,0.3,0.7,0.4c0.2,0.1,0.4,0.2,0.5,0.3c0.2,0.1,0.5,0.3,0.7,0.4c0.2,0.1,0.4,0.2,0.5,0.3c0.2,0.1,0.4,0.2,0.6,0.3
		c0.2,0.1,0.4,0.2,0.5,0.3c0.2,0.1,0.4,0.2,0.6,0.3c0.2,0.1,0.3,0.2,0.5,0.2c0.2,0.1,0.3,0.2,0.5,0.2c0.2,0.1,0.3,0.1,0.5,0.2
		c0.1,0.1,0.3,0.1,0.4,0.2c0.2,0.1,0.3,0.1,0.5,0.2c0.1,0,0.2,0.1,0.4,0.1c0.2,0.1,0.3,0.1,0.4,0.2c0.1,0,0.2,0.1,0.3,0.1
		c0.1,0.1,0.3,0.1,0.4,0.1c0.1,0,0.1,0.1,0.2,0.1c0.2,0.1,0.4,0.1,0.5,0.2c0.2-0.1,0.4-0.2,0.6-0.3c0.1,0,0.2-0.1,0.3-0.1
		c0.1-0.1,0.3-0.1,0.4-0.2c0.1-0.1,0.2-0.1,0.4-0.2c0.1-0.1,0.3-0.1,0.4-0.2c0.2-0.1,0.3-0.2,0.5-0.2c0.1-0.1,0.2-0.1,0.3-0.2
		c0.2-0.1,0.4-0.2,0.5-0.3c0.1-0.1,0.2-0.1,0.3-0.2c0.2-0.1,0.4-0.2,0.6-0.4c0.1,0,0.2-0.1,0.2-0.1c0.3-0.1,0.5-0.3,0.8-0.5
		c0,0,0,0,0.1,0c8.3-5,21.7-16.5,28.1-42.2c0-0.1,0-0.2,0.1-0.2c0.2-0.9,0.4-1.8,0.6-2.7c0.1-0.3,0.1-0.7,0.2-1
		c0.1-0.7,0.3-1.4,0.4-2.2C433.1,691.6,433.3,690.5,433.5,689.3z"/>
	<path fill="#7F7FD6" d="M403.9,711.6c0.3,0.1,0.4,0.4,0.2,0.7c-1.2,2.1-2.5,3.9-3.9,5.3c-1.5,1.6-3.1,2.8-4.7,3.7l-0.3,0.2
		l-0.3-0.2c-1.5-0.8-3.2-2.1-4.7-3.7c-1.3-1.4-2.7-3.2-3.9-5.3c-0.2-0.3-0.1-0.5,0.2-0.7c0.3-0.2,0.5-0.1,0.7,0.2
		c1.1,2,2.3,3.7,3.7,5c1.4,1.5,2.9,2.6,4.3,3.4c1.4-0.8,2.9-2,4.3-3.4c1.3-1.3,2.6-3,3.7-5C403.4,711.5,403.7,711.4,403.9,711.6z
		 M428.3,691.8c-0.3,1.7-0.6,3.4-0.9,5.1c-0.4,1.6-0.7,3.2-1.2,4.7c-0.2,0.8-0.5,1.5-0.7,2.3c-0.2,0.7-0.4,1.4-0.6,2
		c-0.3,0.7-0.5,1.5-0.8,2.2c-0.2,0.6-0.5,1.2-0.7,1.8c-0.3,0.7-0.6,1.4-0.9,2c-0.3,0.6-0.5,1.1-0.8,1.7c-0.3,0.6-0.6,1.3-0.9,1.9
		c-0.3,0.5-0.6,1.1-0.8,1.6c-0.3,0.6-0.7,1.2-1,1.7c-0.3,0.5-0.6,1-0.9,1.5c-0.3,0.5-0.7,1.1-1,1.6c-0.3,0.5-0.7,0.9-1,1.4
		c-0.3,0.5-0.7,1-1,1.4c-0.4,0.6-0.9,1.1-1.3,1.6c-0.5,0.6-1.1,1.3-1.6,1.9c-0.4,0.4-0.8,0.9-1.2,1.3c-0.3,0.3-0.7,0.7-1,1
		c-0.4,0.4-0.8,0.8-1.2,1.1c-0.3,0.3-0.7,0.6-1,0.9c-0.4,0.3-0.8,0.7-1.2,1c-0.3,0.3-0.7,0.5-1,0.8c-0.4,0.3-0.8,0.6-1.2,0.9
		c-0.3,0.2-0.6,0.4-0.9,0.6c-0.4,0.3-0.8,0.5-1.2,0.8c-0.3,0.2-0.6,0.4-0.8,0.5c-0.5,0.3-0.9,0.5-1.4,0.7c-0.2,0.1-0.5,0.2-0.7,0.4
		c-0.7,0.3-1.3,0.6-2,0.9c-0.9-0.2-1.8-0.5-2.6-0.8c-0.1,0-0.2-0.1-0.3-0.1c-0.8-0.3-1.6-0.7-2.5-1.1c-0.1-0.1-0.2-0.1-0.4-0.2
		c-0.8-0.4-1.6-0.8-2.4-1.3c-0.1-0.1-0.3-0.2-0.4-0.2c-0.8-0.5-1.6-1-2.3-1.6c-0.1-0.1-0.2-0.2-0.3-0.3c-0.8-0.6-1.6-1.2-2.3-1.9
		c-0.1-0.1-0.1-0.1-0.2-0.2c-1.6-1.4-3.2-2.9-4.7-4.6c0,0-0.1-0.1-0.1-0.1c-0.7-0.8-1.5-1.6-2.2-2.5c-0.1-0.1-0.1-0.2-0.2-0.2
		c-0.7-0.9-1.4-1.7-2-2.6c-0.1-0.1-0.1-0.2-0.2-0.3c-0.7-0.9-1.3-1.8-2-2.8c0-0.1-0.1-0.1-0.1-0.2c-2.7-4-5-8.4-6.9-12.7
		c0,0,0,0,0,0c-0.5-1.1-0.9-2.2-1.3-3.3c0,0,0,0,0,0c-0.4-1.1-0.8-2.2-1.1-3.2c0,0,0,0,0,0c-0.2-0.7-0.4-1.4-0.6-2.1
		c0-0.1-0.1-0.2-0.1-0.3c-0.2-0.7-0.4-1.5-0.5-2.2c13.7-4.7,16.2-22.7,16.2-22.7h34.7C412.5,671.5,412.7,686.8,428.3,691.8z
		 M412.3,712.5c-1.5-0.8-2.9-1.9-4.1-3.1c-1.5-1.5-2.9-3.4-3.9-5.6l-1.2-2.2l2.3,1c1.1,0.4,2.2,0.9,3.4,1.2c0.2,0,0.4,0.1,0.5,0.1
		c-2-1.6-3.8-3.3-5.2-5.2c-2-2.5-3.4-5.3-4.1-8.3l-0.5-2.3l2,1.3c0.6,0.4,1.2,0.8,1.8,1.1c-1.7-2-3.2-4-4.5-6.2
		c-1.4-2.4-2.6-5-3.5-7.8c-0.9,2.8-2.1,5.4-3.3,7.8c-1.3,2.1-2.8,4.2-4.5,6.2c0.6-0.4,1.3-0.7,1.8-1.1l2-1.3l-0.5,2.3
		c-0.7,3-2.1,5.8-4.1,8.3c-1.5,1.9-3.2,3.6-5.2,5.2c0.2,0,0.4-0.1,0.5-0.1c1.2-0.3,2.3-0.7,3.4-1.2l2.3-1l-1.2,2.2
		c-1.1,2.1-2.4,3.9-3.9,5.6c-1.3,1.3-2.6,2.3-4.1,3.1c2.2,3.6,4.7,6.5,7.5,9c2.9,2.5,6,4.4,9.4,5.6c3.4-1.3,6.5-3.1,9.4-5.6
		C407.5,719,410,715.9,412.3,712.5z M388.2,708l-0.1,1.3l1-0.9c0.8-0.7,1.6-1.4,2.5-2.1c0.9-0.6,1.8-1.3,2.8-1.7
		c0.3-0.2,0.4-0.4,0.3-0.7c-0.2-0.3-0.4-0.4-0.7-0.3c-1,0.5-2,1.2-3,1.8c-0.6,0.4-1.2,0.9-1.7,1.3c0-0.3,0-0.5-0.1-0.9
		c-0.1-0.8-0.3-1.6-0.6-2.6c-0.1-0.3-0.4-0.4-0.7-0.4c-0.3,0.3-0.4,0.5-0.4,0.8c0.4,0.9,0.5,1.7,0.6,2.3
		C388.2,706.8,388.2,707.3,388.2,708z M139.4,433.8c8.9-2,20.4-8.4,28.6-16.7c-1.1-0.7-15.2-5.9-25.6-18.6c-3-3.6-5.5-7.9-7.5-12.7
		c8.6-0.2,36.6-8.1,40.5-14.1l0.1-0.1c-3.4,0.2-16.2-0.5-19-2.5l-0.1-0.1c5.5-1.1,26.4-11.6,25.6-53.7v-0.2c-0.5,0.2-0.9,0.6-1.4,1
		c-1.4,1.1-3.4,2.5-7.7,3.9c-0.2,0.6-0.9,2-2.4,4.6c-6.2,10.4-22.4,35.6-61.8,67l0.1,0.1c6.1,6.4,13.2,11.9,19.9,16.2
		c0.6,0.5,1.4,1,2,1.4c3.2,2.1,6.4,4,9,5.5c0.6,0.2,1.1,0.6,1.6,0.9c3.4,1.9,5.7,3.1,6.7,3.6c-0.1,0.1-0.6,0.2-1.1,0.5
		c-0.7,0.2-1.6,0.5-2.7,0.9c-3.4,1-8.7,2.1-14.5,2.5c-0.5,0.1-0.9,0.1-1.4,0.1c-5.9,0.1-12-0.7-17-3.7c0.9,1.5,1.9,3.4,3.4,5.5
		c0.5,0.7,1.1,1.6,1.7,2.5c0.1,0,0.1,0.1,0.2,0.2c0.7,1,1.5,2.1,2.4,3.2c0.1,0.1,0.2,0.4,0.4,0.5c1.4,1.7,2.9,3.7,4.6,5.9
		c0.5,0.6,1.1,1.4,1.7,2.1c0.6,0.7,1.2,1.5,1.9,2.2c2.5,3,5.2,6.2,8.5,9.9c-0.2,0-0.6,0-1-0.1c-0.7-0.1-1.7-0.5-2.9-1
		c-0.9-0.4-2-1-3.2-1.9c-3.4-2.2-7.7-6.1-13-12.4c0,0,0.1,0.1,0.1,0.2c0.1,0.2,0.1,0.4,0.2,0.6c0.2,0.7,0.6,1.9,1.2,3.2v0.1
		c2.2,5.6,7,15.7,14.9,25.9c0.1,0.1,0.4,0.4,0.5,0.6c1.7,2.1,3.6,4.4,5.6,6.5c0.9,0.9,1.9,1.9,2.7,2.7c0.1,0,0.1,0.1,0.1,0.1
		c1.7,1.6,3.5,3.2,5.5,4.9c0.6,0.6,1.4,1.2,2.1,1.7c2,1.5,3.9,2.9,6,4.1c-2.7-0.2-7.4-1.2-12.1-2.4c-3.4-0.9-6.9-1.7-9.9-2.6
		c0.2,0.5,0.9,1.6,1.9,3.2c0,0.1,0.1,0.1,0.1,0.2c1.1,2,2.9,4.5,5.2,7.4c0.4,0.5,0.9,1,1.2,1.5c0.1,0.1,0.1,0.2,0.2,0.4
		c1.7,2.1,4,4.5,6.5,7c0.1,0.1,0.2,0.2,0.4,0.4c12.2,12,33,28.9,66.8,41.6c4,1.5,16.1,6.2,25.9,8.6c1.5,0.4,2.9,0.7,4.2,1
		C181.4,518.9,147,449.8,139.4,433.8z M621.1,139.3c0,1.7-11.7,17-16.6,41c2.9,5.9,4.9,21.5,14.7,24.4
		c28.4-52.2,35.6-120.4,35-137.3c-54.1,32-73.1,66.7-76.1,70.8c6.2-4.1,19.1-5.5,21.9-5.9c0.1,1-5.9,8.6-7,14.7
		C597.2,145.2,603.6,139.7,621.1,139.3z M307.5,399.1c-4.2,1.3-28.8,3-40.8-0.2c-11.6-7.2-18.6-19.6-18.6-33.4
		c0-21.6,17.5-39.1,39.1-39.1c21.6,0,39.1,17.5,39.1,39.1C326.3,379.1,319,391.9,307.5,399.1z M316,365.5
		c0-15.9-12.9-28.7-28.7-28.7c-3.2,0-6.2,0.5-9,1.4c-1.1-0.6-2.4-0.9-3.8-0.9c-4.4,0-7.9,3.5-7.9,7.9c0,0.1,0,0.3,0,0.4
		c-5.2,5.3-8.3,12.5-8.3,20c0,15.9,12.9,28.7,28.7,28.7C303,394.2,315.9,381.4,316,365.5z M395.9,703.9c-0.2,0.3,0,0.6,0.3,0.7
		c1,0.4,1.9,1.1,2.8,1.7c0.9,0.6,1.7,1.3,2.5,2.1l1,0.9l-0.1-1.3c0-0.6,0-1.2,0.1-1.9c0.1-0.7,0.3-1.4,0.6-2.3
		c0.1-0.3-0.1-0.6-0.4-0.7c-0.3-0.1-0.6,0.1-0.7,0.4c-0.4,1-0.5,1.8-0.6,2.6c0,0.3-0.1,0.5-0.1,0.9c-0.5-0.4-1.1-0.9-1.7-1.3
		c-1-0.7-2-1.3-3-1.9C396.4,703.5,396,703.7,395.9,703.9z M527.1,398.6c-1.2,0.2-22.8,3.9-40.8,0.4c-11.6-7.1-18.9-19.9-18.9-33.5
		c0-21.6,17.5-39.1,39.1-39.1c21.6,0,39.1,17.5,39.1,39.1C545.6,379.2,538.7,391.6,527.1,398.6z M535.2,365.5
		c0-15.9-12.9-28.7-28.7-28.7c-2.8,0-5.7,0.5-8.6,1.4c-1.1-0.6-2.3-0.9-3.5-0.9c-4.3,0-7.7,3.3-7.9,7.6c-5.2,4.9-8.8,11.9-8.8,20.7
		c0,15.9,12.9,28.7,28.7,28.7C522.4,394.2,535.4,381.4,535.2,365.5z M645.4,419.1c1-0.5,3.5-1.7,6.7-3.6c0.5-0.2,1-0.5,1.6-0.9
		c2.6-1.5,5.7-3.4,9-5.5c0.6-0.5,1.4-0.9,2-1.4c6.6-4.5,13.9-10,19.9-16.1c-47.6-37.8-61.8-66.6-64.2-71.6c-1-0.2-2-0.6-2.9-1
		c-0.2-0.2-0.6-0.4-0.9-0.5c-0.5-0.2-1.1-0.6-1.6-0.9c-0.4-0.1-0.6-0.4-1-0.6c-0.4-0.2-0.9-0.6-1.2-0.9l-0.1-0.1
		c-0.4-0.1-0.6-0.4-0.9-0.6c-0.1-0.1-0.2-0.2-0.4-0.4c-0.9,42.3,20.1,52.7,25.6,53.8c-2.4,2.1-15.7,2.9-19.2,2.6
		c3.5,6,31.9,14,40.6,14.2c-8.9,22.2-31.6,30.4-33.1,31.2c8.4,8.5,19.7,14.9,28.6,16.9c-5.9,13.2-29.7,60.6-72.4,96.9
		c-10.2,8.6-21.2,15.9-33.5,22.7c1.6-0.4,3.4-1,5.4-1.6c8.7-2.7,19.7-7.1,23.1-8.4c7.2-2.7,13.7-5.6,19.9-8.5c0.2,0,0.4-0.1,0.6-0.2
		c1.4-0.6,2.7-1.4,4.1-2c0.2-0.1,0.5-0.2,0.7-0.4c1.2-0.6,2.6-1.4,3.9-2c0.2,0,0.4-0.1,0.6-0.2c11.5-6.1,20.7-12.4,28.1-18.2
		c0.1-0.1,0.4-0.2,0.5-0.4c3.9-3.1,7.1-6.1,10-8.9c0.1-0.1,0.2-0.2,0.4-0.4c7-6.7,11.1-12.5,13.4-16.1c0-0.1,0.1-0.1,0.1-0.2
		c0.1-0.4,0.4-0.6,0.5-0.9c0.4-0.6,0.6-1.2,0.9-1.6v-0.1c0-0.1,0.1-0.2,0.1-0.4c0.1-0.1,0.2-0.2,0.2-0.4h-0.1
		c-0.5,0.1-1.1,0.4-1.7,0.5c-0.4,0.1-0.6,0.1-1,0.2c-0.2,0-0.5,0.1-0.7,0.1c-2.1,0.5-4.2,1.1-6.4,1.6c-4.7,1.1-9.4,2.1-12.1,2.4
		c3.9-2.5,7.5-5.2,10.7-8.1c0.7-0.6,1.4-1.4,2.1-2c0.2-0.2,0.5-0.5,0.7-0.7l0.1-0.1c1.4-1.2,2.6-2.6,3.7-3.9
		c0.2-0.2,0.4-0.5,0.6-0.7c0.4-0.4,0.7-0.7,1.1-1.2c0.7-0.9,1.5-1.6,2.1-2.5c3.7-4.6,6.7-9.2,9.2-13.5c0.4-0.6,0.7-1.2,1-1.7
		l0.1-0.1c0.6-1,1.1-1.9,1.6-2.9c0.1-0.2,0.2-0.5,0.4-0.7c0.2-0.6,0.6-1.2,0.9-1.9c0.1-0.2,0.1-0.4,0.2-0.6c0.1-0.4,0.4-0.7,0.5-1.1
		c0-0.2,0.1-0.4,0.2-0.6c0.2-0.4,0.4-0.6,0.5-1c0.1-0.2,0.1-0.4,0.2-0.6c0.1-0.4,0.2-0.6,0.4-0.9c0.1-0.2,0.1-0.4,0.2-0.6
		c0-0.2,0.1-0.5,0.2-0.7c0.1-0.1,0.1-0.4,0.2-0.5c0-0.1,0.1-0.2,0.1-0.4c0.2-0.5,0.5-1,0.6-1.5c0-0.1,0.1-0.2,0.1-0.4
		c0.1-0.2,0.1-0.5,0.2-0.6c0.1-0.2,0.1-0.5,0.2-0.7c0.1-0.1,0.1-0.1,0.1-0.2c-0.5,0.5-1,1-1.4,1.5c-0.1,0.2-0.2,0.4-0.4,0.5
		c-0.4,0.4-0.6,0.7-1,1.1c-0.1,0.1-0.2,0.2-0.4,0.4c-0.9,1-1.7,1.9-2.6,2.7c-1.7,1.7-3.4,3.2-4.9,4.4c-0.9,0.7-1.6,1.2-2.4,1.7
		c-1.2,0.7-2.2,1.4-3.2,1.9c-1.1,0.5-2.1,0.9-2.9,1c-0.5,0.1-0.9,0.1-1.1,0.1c3.2-3.6,6-6.9,8.5-9.9c0.6-0.7,1.2-1.5,1.9-2.2
		c0.6-0.7,1.1-1.5,1.7-2.2c1.1-1.4,2.1-2.7,3.1-4c0.5-0.6,0.9-1.2,1.4-1.9c0.1-0.1,0.2-0.4,0.4-0.5c0.9-1.1,1.6-2.2,2.4-3.2
		c0.1,0,0.1-0.1,0.2-0.2c0.6-0.9,1.2-1.7,1.7-2.5c1.5-2.1,2.6-4,3.4-5.5c-0.6,0.4-1.2,0.6-1.9,1C679.4,421,661.7,426.2,645.4,419.1z
		 M139.7,67.3c-0.6,16.9,5.7,83.2,34,135.5c11.4-2.6,12.9-16.7,15.7-22.6c-4.9-23.9-16.6-39.2-16.6-41c17.5,0.2,23.9,5.7,28.1,7.9
		c-1.1-6.1-7.1-13.7-7-14.7c2.7,0.4,15.6,1.6,21.9,5.9C212.7,134,193.6,99.4,139.7,67.3z M395.3,693.9l3.3-3.6
		c0.2-0.2,0.2-0.5,0-0.8c-0.3-0.2-0.6-0.2-0.8,0l-2.5,2.8l-2.5-2.8c-0.2-0.2-0.5-0.3-0.8,0c-0.2,0.2-0.3,0.5,0,0.8L395.3,693.9z"/>
	<path fill="#05CEAC" d="M262.4,599.8c2.5-12.7,7.2-25,9.2-30c12.3,9.8,75.8,40.7,105.8,44.3c-2.6,6.4-5.3,31.2-2.6,36.9
		C350.7,648.9,326,642,306,634c-5.3-5.2-13.7-9.2-25.2-11.9c-5-2.9-9.1-5.6-12.1-8.1C264.8,610.8,261.2,605.7,262.4,599.8z
		 M271.6,97.2c0,0,0,0-3.1,11.3C322.9,74.3,389.6,72,396.8,72c7.2,0,73.8,2.4,128.3,36.5c-2.4-6.6-2.6-7.6-2.6-7.6s4.6-7.7,7-10.4
		c-11.9-7.1-72.9-37.8-132.7-38.5c-59.7,0.6-120.8,31.4-132.7,38.5C266.6,93.1,271.6,97.2,271.6,97.2z M424.8,657.5
		c-0.5,9.4,1.9,13.3,2.6,14.7c2.2,4.1,4.9,8.3,14,9.9l4.7,0.8c0,0,0.1,1.8-0.3,5.7c4.2,0.2,22.9,0,23.3,0c0.2-12.1,3.1-25.4,12.6-43
		C475.2,648.7,457.9,655.1,424.8,657.5z M417.3,614.9c2.2,6.6,3.7,31.4,0.7,37c23.6-0.9,47.9-6.3,67.9-12.9
		c5.7-7.4,15.6-14.2,37.5-16.8c0.9-0.6,1.8-1.2,2.6-1.8c4-3,9.2-8.5,8.2-14.4c-1.8-12.9-7.2-24.8-8.9-29.9
		C512.5,585.3,447.5,612.8,417.3,614.9z M365.7,659.1l0.1-2.5c-20.3-3.3-36.2-6.9-54.5-14.2c0,0,0,0,0,0c4.9,13.7,7.3,30.4,6.1,46.2
		c9.2,0,20.3,0,27.7-0.2c-0.3-1.3-0.5-2.1-0.5-2.1l4.2-1.5C359.8,680.6,365,672.7,365.7,659.1z"/>
	<path fill="#CAFFFC" d="M160.8,327.7c-0.7-3-7,5.6-7.9,6.4c-0.7,0,1.6-12,17.6-19.6c4.5-2.1,6.6-2.7,9.4-6.1
		c4.1-4.9,5.2-10.9,6.2-15.7c0.7-3.5,1.5-16.5,17.2-24.5c2.2-1.1,7.2-1.5,12.5-4.2c3.2-1.7,7.2-6.6,10.5-14.4
		c0.9-2.1,6.2-14.7,17.9-22.4c7.7-5.1,21.9-6.7,31.4-3.9c21.4,6.4,31.7-2.7,34.7-6c10.7-11.7,21.9-7.7,25.6-7.1
		c4.7,0.7,16,4.9,27.6-4.2c3.4-2.7,16.6-14,33.1-4c16.5-10,29.6,1.4,33.1,4c11.6,9.2,22.9,5,27.6,4.2c3.7-0.6,15-4.5,25.6,7.1
		c2.9,3.2,13.4,12.4,34.7,6c9.5-2.9,23.6-1.2,31.4,3.9c11.5,7.6,16.9,20.2,17.9,22.4c3.2,7.7,7.2,12.6,10.5,14.4
		c5.2,2.7,10.2,3.1,12.5,4.2c15.7,8,16.5,21,17.2,24.5c1.1,4.9,2.2,10.9,6.2,15.7c2.9,3.4,5,4,9.4,6.1c17.8,6.6,19.7,17.9,17.6,19.6
		c-0.9-0.7-7.1-9.4-7.9-6.4c-0.1,0.7,7.1,10.1,11.2,15.2c19.6-20.4,11.6-48,9.7-51.3l-2.4,2.5c-1.7,1.9-4.7-0.5-3.4-2.6
		c4.4-7,5.6-14.2,5.6-20.6c0.1-12.7-3.2-22.1-12.4-26c-10.2-4.5-9.1-18.4-9.2-20.7c-0.6-13.2-10.4-13.7-12.4-13.7
		c-13.7,0-18.9-22.4-19.6-24.7c-6.6-20.7-23-18.4-24.2-18.4c-15.5,0.5-19-11.7-19.9-14.1c-4.4-13.1-12.4-10.1-17.4-10
		c-10.5,0.4-13-1.6-16.6-5.7c-4.6-5.2-8.5-8.1-11.9-8.9c-4.4-1-8.9,2-10.5,2.6c-9.1,4.2-14.9-3.1-16.1-4.7c-16.4-21-36.2-8-38.2-7
		c-14,6.9-16.5,4.4-25.5-0.2c-2.1-1.1-12.6-10.2-23.2-10.2c-10.2,0-21.1,9.1-23.2,10.2c-9,4.5-11.5,7.1-25.5,0.2
		c-2-1-21.9-14-38.2,7c-1.2,1.6-7,9-16.1,4.7c-1.5-0.7-6.1-3.6-10.5-2.6c-3.4,0.7-7.2,3.6-11.9,8.9c-3.6,4.1-6.1,6.1-16.6,5.7
		c-5-0.1-12.9-3.1-17.4,10c-0.9,2.5-4.4,14.6-19.9,14.1c-1.4,0-17.6-2.4-24.2,18.4c-0.7,2.4-6,24.7-19.6,24.7
		c-2,0-11.6,0.5-12.4,13.7c-0.1,2.2,1.1,16.2-9.2,20.7c-9.1,3.9-12.5,13.2-12.4,26c0.1,6.5,1.2,13.6,5.6,20.6
		c1.4,2.1-1.5,4.5-3.4,2.6l-2.4-2.5c-2,3.4-10,30.9,9.7,51.3C153.8,337.8,161,328.5,160.8,327.7z M628.1,250.3
		c5.1,1.8,7.9,30.3-16.2,36.8C621,277.9,627.2,258.1,628.1,250.3z M600.2,201.7c7.4,10-0.7,31.9-10.7,31.5
		C598.1,224.7,600.3,207.4,600.2,201.7z M549.5,223.9c5.7-7.2,4.7-18.7,4.2-24.9c-0.1-1-0.1-1.7-0.1-2.4c0-0.5,0-1-0.1-1.7
		c-0.5-7.1-1.6-23.9,7.1-26.7l1.4-0.4l-0.6,1.2c-4,8.9-3.4,20.1-2.2,27.9c0.6,4,2.9,24.2-8.9,28l-1.9,0.6L549.5,223.9z M475.7,182.4
		c7.7-13.5,8.5-34.4,8.7-43.2c0.1-4.5,0.1-4.9,0.9-5c0.1,0,0.6,0,0.9,0.5c8.7,19,4.5,37.4-5.4,45.6c-2.5,2-5.4,2.7-5.4,2.7
		L475.7,182.4z M411.2,155.5c1-3.2,3-17.7,1.5-30.7l-0.2-1.9l1.2,1.4c7.6,7.9,5.5,26.5,2.4,36.3c-3,9.4-2.9,18.7-2.9,23.9
		c0,3.5,0,4.5-0.7,4.6c-0.1,0-0.1,0-0.2,0c-0.5,0-0.9-0.5-1-0.7C405,178.3,409.7,160.6,411.2,155.5z M379.9,123.9l1.3-1l-0.2,1.9
		c-1.5,13,0.4,27.4,1.5,30.7c1.6,5.1,6.2,22.7-0.1,32.9c-0.1,0.2-0.5,0.7-1,0.7c-0.1,0-0.1,0-0.2,0c-0.7-0.2-0.7-1.1-0.7-4.6
		c0-5.1,0.1-14.5-2.9-23.9C374.5,150.8,372.3,131.8,379.9,123.9z M307.5,134.7c0.2-0.6,0.2-0.6,1.4-2c0.1,1.4-0.1,2.4,0.1,6.9
		c0.2,8.9,1.3,29.2,9.1,42.8l0.4,0.6c0,0-2.6,0.5-4.9-1.6C304.7,173.2,298.8,153.7,307.5,134.7z M233.2,168.1
		c8.9,2.8,7.6,19.6,7.1,26.7c0,0.7-0.1,1.2-0.1,1.7c0,0.6-0.1,1.4-0.1,2.4c-0.5,6.1-1.5,17.6,4.2,24.9l0.9,1.1c0,0-1.1,0-1.5-0.1
		c-12.2-2.3-9.5-24-8.9-28c1.1-7.9,1.6-19-2.2-27.9l-0.6-1.2C232,167.8,232.9,168,233.2,168.1z M191.8,199.1c0.2,6.2,4,19.3,8.9,31
		C194.5,229.5,183.7,209.3,191.8,199.1z M166.5,249.3c1,11.1,6.6,31.2,15.6,37.7l1.7,1.5c0,0-1.6-0.1-2.1-0.1
		c-5.2-0.3-10.2-4-13.4-10.5C163.1,268.2,163.4,254.2,166.5,249.3z"/>
	<path fill="#F9AE49" d="M396.8,72c7.2,0,73.8,2.4,128.3,36.5c0,0,0.1,0.1,0.1,0.1c0,0.1,0.1,0.4,0.1,0.5c0,0.1,0.1,0.4,0.1,0.5
		c0.2,1,0.6,2,0.9,3.1c0.1,0.2,0.1,0.4,0.2,0.6c0.6,1.9,1.2,3.7,2.1,5.7c0.9,2.2,2,4.6,3.2,7.2c0,0.1,0.1,0.1,0.1,0.2
		c1.6,3.2,3.5,6.7,5.6,10.4c-3.5,1-8.9,0.4-12.9-5.4c-9.6-13.9-20.2-9.2-26.9-6.6c-6.5,2.6-8.9-1.1-10.1-3
		c-11.6-17.2-31.4-16.1-44.3-8.5c-9.5,5.6-14.1,5.9-23.7-1.7c-4.2-3.4-14.2-9-23-9.2c-9.5,0.2-18.7,5.9-23,9.2
		c-9.6,7.5-14.2,7.4-23.7,1.7c-13-7.7-32.9-8.7-44.3,8.5c-1.2,1.9-3.6,5.6-10.1,3c-6.6-2.7-17.2-7.4-26.9,6.6
		c-4,5.7-9.4,6.2-12.9,5.4c2.2-3.6,4.1-7.1,5.6-10.4c0-0.1,0.1-0.1,0.1-0.2c1.2-2.5,2.2-4.9,3.2-7.1c0.9-2,1.5-4,2.1-5.9
		c0.1-0.2,0.1-0.4,0.2-0.6c0.4-1.1,0.6-2.1,0.9-3.1c0-0.1,0.1-0.4,0.1-0.5c0-0.1,0.1-0.4,0.1-0.5c0,0,0,0,0.1,0
		C322.9,74.3,389.6,72,396.8,72z"/>
</g>
</svg>
